<?xml version="1.0" encoding="UTF-8"?>
<svg width="198" height="151" viewBox="0 0 198 151" xmlns="http://www.w3.org/2000/svg">
  <rect width="198" height="151" fill="none"/>

  <rect x="24" y="28" width="84" height="86" rx="14" fill="#ffffff"/>
  <rect x="24" y="28" width="84" height="24" rx="14" fill="#754FFE"/>
  <rect x="24" y="42" width="84" height="10" fill="#754FFE"/>

  <rect x="43" y="20" width="7" height="20" rx="3.5" fill="#754FFE"/>
  <rect x="82" y="20" width="7" height="20" rx="3.5" fill="#754FFE"/>

  <circle cx="45" cy="69" r="5" fill="#CBD5E1"/>
  <circle cx="66" cy="69" r="5" fill="#CBD5E1"/>
  <circle cx="87" cy="69" r="5" fill="#CBD5E1"/>

  <circle cx="45" cy="91" r="5" fill="#94A3B8"/>
  <circle cx="66" cy="91" r="5" fill="#38A169"/>
  <circle cx="87" cy="91" r="5" fill="#94A3B8"/>
  <circle cx="66" cy="91" r="2" fill="#ffffff"/>

  <rect x="122" y="42" width="54" height="22" rx="11" fill="#ffffff"/>
  <text x="149" y="57" text-anchor="middle" font-family="Arial, Helvetica, sans-serif" font-size="10" font-weight="700" fill="#38A169">Uygun</text>

  <rect x="112" y="73" width="70" height="22" rx="11" fill="#ffffff"/>
  <text x="147" y="88" text-anchor="middle" font-family="Arial, Helvetica, sans-serif" font-size="10" font-weight="700" fill="#754FFE">Planlandı</text>

  <rect x="123" y="104" width="50" height="22" rx="11" fill="#ffffff"/>
  <text x="148" y="119" text-anchor="middle" font-family="Arial, Helvetica, sans-serif" font-size="10" font-weight="700" fill="#F59E0B">Yoğun</text>
</svg>
